<?xml version="1.0" encoding="utf-8"?>
<!-- Generator: Adobe Illustrator 25.2.0, SVG Export Plug-In . SVG Version: 6.00 Build 0)  -->
<svg version="1.1" id="Layer_1" xmlns="http://www.w3.org/2000/svg" xmlns:xlink="http://www.w3.org/1999/xlink" x="0px" y="0px"
	 width="42px" height="42px" viewBox="0 0 42 42" style="enable-background:new 0 0 42 42;" xml:space="preserve">
<style type="text/css">
	.st0{fill:none;stroke:#000000;stroke-width:0.72;stroke-miterlimit:10;}
	.st1{fill:none;stroke:#000000;stroke-width:0.72;stroke-linejoin:round;stroke-miterlimit:10;}
</style>
<g id="group_1_">
	<path d="M32,41h-0.9v-9.9c0-4.7-3.2-8.7-7.7-9.8c-0.2,0-0.3-0.2-0.4-0.4c0-0.2,0.1-0.4,0.3-0.5c2-0.9,3.3-2.9,3.3-5.1
		c0-3.1-2.5-5.5-5.5-5.5s-5.5,2.5-5.5,5.5c0,2.2,1.3,4.2,3.3,5.1c0.2,0.1,0.3,0.3,0.3,0.5c0,0.2-0.2,0.4-0.4,0.4
		c-4.6,1.1-7.7,5.1-7.7,9.8V41H10v-9.9c0-4.7,3-8.9,7.4-10.4c-1.7-1.2-2.8-3.2-2.8-5.4c0-2.6,1.5-4.8,3.7-5.9c0.3-0.6,0.4-1.3,0.4-2
		c0-3.1-2.5-5.5-5.5-5.5S7.6,4.4,7.6,7.5c0,2.2,1.3,4.2,3.3,5.1c0.2,0.1,0.3,0.3,0.3,0.5c0,0.2-0.2,0.4-0.4,0.4
		C6.2,14.5,3,18.5,3,23.2v9.9H2.1v-9.9c0-4.7,3-8.9,7.4-10.4c-1.7-1.2-2.8-3.2-2.8-5.3C6.6,3.9,9.5,1,13.1,1s6.5,2.9,6.5,6.5
		c0,0.6-0.1,1.1-0.2,1.6c1-0.3,2.2-0.3,3.3,0c-0.1-0.5-0.2-1.1-0.2-1.6c0-3.6,2.9-6.5,6.5-6.5s6.5,2.9,6.5,6.5
		c0,2.2-1.1,4.2-2.8,5.4c4.4,1.5,7.4,5.6,7.4,10.4v9.9H39v-9.9c0-4.7-3.2-8.7-7.7-9.8c-0.2,0-0.3-0.2-0.4-0.4c0-0.2,0.1-0.4,0.3-0.5
		c2-0.9,3.3-2.9,3.3-5.1c0-3.1-2.5-5.5-5.5-5.5s-5.5,2.5-5.5,5.5c0,0.7,0.1,1.4,0.4,2c2.2,1,3.7,3.3,3.7,5.9c0,2.2-1.1,4.2-2.8,5.4
		C29,22.3,32,26.4,32,31.1L32,41L32,41z"/>
	<path d="M32.2,41.1h-1.2v-10c0-4.6-3.1-8.6-7.6-9.6c-0.3-0.1-0.5-0.3-0.5-0.5c0-0.3,0.1-0.5,0.4-0.6c1.9-0.9,3.2-2.8,3.2-4.9
		c0-3-2.4-5.4-5.4-5.4c-3,0-5.4,2.4-5.4,5.4c0,2.1,1.3,4.1,3.2,4.9c0.2,0.1,0.4,0.4,0.4,0.6c0,0.3-0.2,0.5-0.5,0.5
		c-4.5,1.1-7.6,5-7.6,9.6v10H9.8v-10c0-4.6,2.9-8.8,7.2-10.4c-1.7-1.3-2.7-3.2-2.7-5.3c0-2.5,1.5-4.9,3.8-6c0.2-0.6,0.4-1.3,0.4-1.9
		c0-3-2.4-5.4-5.4-5.4c-3,0-5.4,2.4-5.4,5.4c0,2.1,1.3,4.1,3.2,4.9c0.2,0.1,0.4,0.4,0.4,0.6c0,0.3-0.2,0.5-0.5,0.5
		c-4.5,1.1-7.6,5-7.6,9.6v10H1.9v-10c0-4.6,2.9-8.8,7.2-10.4c-1.7-1.3-2.7-3.2-2.7-5.3c0-3.7,3-6.6,6.6-6.6s6.6,3,6.6,6.6
		c0,0.5-0.1,1-0.2,1.4c0.9-0.2,1.9-0.2,2.9,0c-0.1-0.5-0.2-0.9-0.2-1.4c0-3.7,3-6.6,6.6-6.6c3.7,0,6.6,3,6.6,6.6
		c0,2.1-1,4.1-2.7,5.3c4.3,1.6,7.2,5.8,7.2,10.4v10h-1.3v-10c0-4.6-3.1-8.6-7.6-9.6c-0.3-0.1-0.5-0.3-0.5-0.5c0-0.3,0.1-0.5,0.4-0.6
		c1.9-0.9,3.2-2.8,3.2-4.9c0-3-2.4-5.4-5.4-5.4s-5.4,2.4-5.4,5.4c0,0.7,0.1,1.3,0.4,1.9c2.3,1.1,3.8,3.4,3.8,6c0,2.1-1,4.1-2.7,5.3
		c4.3,1.6,7.2,5.8,7.2,10.4L32.2,41.1z M31.2,40.9h0.6l0-9.7c0-4.6-2.9-8.7-7.3-10.2l-0.3-0.1l0.2-0.2c1.7-1.2,2.8-3.1,2.8-5.2
		c0-2.4-1.4-4.7-3.6-5.7l-0.1,0l0-0.1c-0.3-0.7-0.4-1.4-0.4-2.1c0-3.1,2.6-5.7,5.7-5.7s5.7,2.6,5.7,5.7c0,2.2-1.3,4.3-3.4,5.2
		C31.1,12.7,31,12.9,31,13c0,0.1,0.1,0.3,0.2,0.3c4.6,1.1,7.9,5.2,7.9,9.9v9.7h0.6v-9.7c0-4.6-2.9-8.7-7.3-10.2l-0.3-0.1l0.2-0.2
		c1.7-1.2,2.8-3.1,2.8-5.2c0-3.5-2.8-6.3-6.3-6.3c-3.5,0-6.3,2.8-6.3,6.3c0,0.5,0.1,1.1,0.2,1.6l0.1,0.2l-0.2-0.1
		c-1-0.3-2.2-0.3-3.2,0l-0.2,0.1l0.1-0.2c0.1-0.5,0.2-1,0.2-1.6c0-3.5-2.8-6.3-6.3-6.3S6.8,4,6.8,7.5c0,2.1,1,4,2.8,5.2l0.2,0.2
		L9.5,13c-4.3,1.5-7.3,5.6-7.3,10.2v9.7h0.6v-9.7c0-4.7,3.2-8.8,7.9-9.9c0.1,0,0.2-0.1,0.2-0.3c0-0.1-0.1-0.3-0.2-0.3
		c-2.1-0.9-3.4-3-3.4-5.2c0-3.1,2.6-5.7,5.7-5.7c3.1,0,5.7,2.6,5.7,5.7c0,0.7-0.1,1.4-0.4,2.1l0,0.1l-0.1,0c-2.2,1-3.6,3.3-3.6,5.7
		c0,2.1,1,4,2.8,5.2l0.2,0.2l-0.3,0.1c-4.3,1.5-7.3,5.6-7.3,10.2v9.7h0.6v-9.7c0-4.7,3.2-8.8,7.9-9.9c0.1,0,0.2-0.1,0.2-0.3
		c0-0.1-0.1-0.3-0.2-0.3c-2.1-0.9-3.4-2.9-3.4-5.2c0-3.1,2.6-5.7,5.7-5.7c3.1,0,5.7,2.6,5.7,5.7c0,2.2-1.3,4.3-3.4,5.2
		c-0.1,0.1-0.2,0.2-0.2,0.3c0,0.1,0.1,0.3,0.2,0.3c4.6,1.1,7.9,5.2,7.9,9.9V40.9z"/>
</g>
</svg>
