<?xml version="1.0" encoding="utf-8"?>
<!-- Generator: Adobe Illustrator 25.2.3, SVG Export Plug-In . SVG Version: 6.00 Build 0)  -->
<svg version="1.1" id="Layer_1" xmlns="http://www.w3.org/2000/svg" xmlns:xlink="http://www.w3.org/1999/xlink" x="0px" y="0px"
	 width="42px" height="29.6px" viewBox="0 0 42 29.6" style="enable-background:new 0 0 42 29.6;" xml:space="preserve">
<g id="high--five_1_">
	<path d="M41.5,29.1h-1V17.6c0-3.5-2.4-6.5-5.8-7.3c-0.2,0-0.4-0.2-0.4-0.4c0-0.2,0.1-0.4,0.3-0.5C36.1,8.7,37,7.3,37,5.7
		c0-2.2-1.8-4.1-4.1-4.1s-4.1,1.8-4.1,4.1c0,1.6,0.9,3.1,2.4,3.7c0.2,0.1,0.4,0.4,0.3,0.6s-0.4,0.4-0.6,0.3c-4-1.4-6-3.1-7.5-4.6
		c-0.1,0.6-0.5,1.3-1.2,1.9C22,7.8,21.8,8,21.6,8.2c2.1,2.1,5,5.1,5,5.1c0.1,0.1,0.1,0.2,0.1,0.4v15.4h-1V13.9
		c-0.6-0.6-3.1-3.1-4.8-4.9c-1.8,1.8-4.2,4.3-4.8,4.9v15.2h-1V13.6c0-0.1,0.1-0.3,0.1-0.4c0,0,4.5-4.6,6.2-6.4
		c0.6-0.7,1-1.3,0.9-1.8c0-0.4-0.2-0.7-0.5-1c-0.4-0.3-1-0.9-2.5,0.6l-0.2,0.3c-1.6,1.7-3.4,3.6-8.2,5.3c-0.3,0.1-0.5,0-0.6-0.3
		c-0.1-0.2,0-0.5,0.3-0.6C12.1,8.6,13,7.2,13,5.6c0-2.2-1.8-4.1-4.1-4.1S4.8,3.3,4.8,5.6c0,1.6,0.9,3.1,2.4,3.7
		c0.2,0.1,0.3,0.3,0.3,0.5s-0.2,0.4-0.4,0.4c-3.2,0.9-5.6,3.9-5.6,7.4v11.5h-1V17.6c0-3.6,2.2-6.7,5.4-7.9c-1.2-0.9-2-2.4-2-4
		c0-2.8,2.3-5.1,5.1-5.1s5.1,2.3,5.1,5.1c0,0.9-0.3,1.9-0.7,2.6c2.7-1.3,4-2.6,5.2-4L18.8,4c1.4-1.5,2.7-1.7,3.9-0.7
		c0.1,0.1,0.2,0.2,0.3,0.4L23.3,4c1.3,1.4,2.7,2.8,5.3,4.2c-0.5-0.8-0.7-1.7-0.7-2.6c0-2.8,2.3-5.1,5.1-5.1s5.1,2.3,5.1,5.1
		c0,1.6-0.8,3.1-2,4c3.2,1.2,5.4,4.4,5.4,7.9C41.5,17.5,41.5,29.1,41.5,29.1z"/>
</g>
</svg>
