<?xml version="1.0" encoding="utf-8"?>
<!-- Generator: Adobe Illustrator 25.0.1, SVG Export Plug-In . SVG Version: 6.00 Build 0)  -->
<svg version="1.1" id="Layer_1" xmlns="http://www.w3.org/2000/svg" xmlns:xlink="http://www.w3.org/1999/xlink" x="0px" y="0px"
	 width="32px" height="32px" viewBox="0 0 32 32" style="enable-background:new 0 0 32 32;" xml:space="preserve">
<style type="text/css">
	.st0{fill:none;stroke:#000000;stroke-width:0.72;stroke-miterlimit:10;}
	.st1{fill:none;stroke:#000000;stroke-width:0.72;stroke-linejoin:round;stroke-miterlimit:10;}
</style>
<g id="presenter_1_">
	<g>
		<path d="M27,31.4H5c-0.2,0-0.4-0.2-0.4-0.4v-4.5h0.7v4.2h21.3v-4.2h0.7V31C27.4,31.2,27.2,31.4,27,31.4z M16,28.9
			c-1.3,0-2.5-0.5-3.4-1.4c-0.9-0.9-1.4-2.1-1.4-3.4s0.5-2.5,1.4-3.4c0.9-0.9,2.1-1.4,3.4-1.4s2.5,0.5,3.4,1.4
			c0.9,0.9,1.4,2.1,1.4,3.4s-0.5,2.5-1.4,3.4l0,0l0,0C18.5,28.4,17.3,28.9,16,28.9z M15.3,28.1c1.3,0.2,2.7-0.2,3.6-1.2l0,0
			c0.8-0.8,1.2-1.8,1.2-2.9c0-1-0.3-1.9-1-2.7l-2.9,2.8L15.3,28.1z M12.3,22.2c-0.3,0.5-0.4,1.2-0.4,1.8c0,1.1,0.4,2.1,1.2,2.9
			c0.4,0.4,1,0.8,1.5,1l1-3.7L12.3,22.2z M12.6,21.6l3.3,1.9l2.7-2.7c-0.7-0.6-1.7-1-2.7-1c-1.1,0-2.1,0.4-2.9,1.2
			C12.9,21.2,12.8,21.4,12.6,21.6z M27.4,21.5h-0.7v-4.1H5.4v4.1H4.6V17c0-0.2,0.2-0.4,0.4-0.4h1.8c1.4-1.9,3.5-3.4,5.8-4.1
			c-1.9-1.2-3-3.2-3-5.4c0-3.6,2.9-6.4,6.4-6.4s6.4,2.9,6.4,6.4c0,2.2-1.2,4.3-3,5.4c2.3,0.7,4.3,2.2,5.8,4.1H27
			c0.2,0,0.4,0.2,0.4,0.4V21.5z M7.7,16.6h16.5c-1.5-1.8-3.6-3.1-5.9-3.7c-0.1,0-0.3-0.2-0.3-0.3c0-0.2,0.1-0.3,0.2-0.4
			c2.1-0.9,3.4-3,3.4-5.2c0-3.2-2.6-5.7-5.7-5.7s-5.7,2.6-5.7,5.7c0,2.2,1.3,4.3,3.4,5.2c0.1,0.1,0.2,0.2,0.2,0.4
			c0,0.2-0.1,0.3-0.3,0.3C11.3,13.5,9.2,14.8,7.7,16.6z"/>
	</g>
	<g>
		<path d="M27,26.9c-1.6,0-2.9-1.3-2.9-2.9s1.3-2.9,2.9-2.9s2.9,1.3,2.9,2.9S28.6,26.9,27,26.9z M27,21.9c-1.2,0-2.1,1-2.1,2.1
			s1,2.1,2.1,2.1s2.1-1,2.1-2.1S28.2,21.9,27,21.9z M5,26.9c-1.6,0-2.9-1.3-2.9-2.9s1.3-2.9,2.9-2.9s2.9,1.3,2.9,2.9
			S6.6,26.9,5,26.9z M5,21.9c-1.2,0-2.1,1-2.1,2.1s1,2.1,2.1,2.1s2.1-1,2.1-2.1S6.2,21.9,5,21.9z"/>
	</g>
</g>
</svg>
