<?xml version="1.0" encoding="utf-8"?>
<!-- Generator: Adobe Illustrator 25.0.1, SVG Export Plug-In . SVG Version: 6.00 Build 0)  -->
<svg version="1.1" id="Layer_1" xmlns="http://www.w3.org/2000/svg" xmlns:xlink="http://www.w3.org/1999/xlink" x="0px" y="0px"
	 width="32px" height="32px" viewBox="0 0 32 32" style="enable-background:new 0 0 32 32;" xml:space="preserve">
<style type="text/css">
	.st0{fill:none;stroke:#000000;stroke-width:0.72;stroke-miterlimit:10;}
</style>
<g id="goals_2_">
	<g>
		<polygon points="31,10.4 21.6,10.4 21.6,1 22.4,1 22.4,9.1 30.7,0.7 31.3,1.3 22.9,9.6 31,9.6 		"/>
	</g>
	<g>
		<path class="st0" d="M21,16c0,2.8-2.2,5-5,5c-2.8,0-5-2.2-5-5c0-2.8,2.2-5,5-5C18.8,11,21,13.2,21,16z M30.4,12
			c0.4,1.3,0.6,2.6,0.6,4c0,8.3-6.7,15-15,15C7.7,31,1,24.3,1,16S7.7,1,16,1c1.4,0,2.7,0.2,4,0.6 M20,6.8C18.8,6.3,17.4,6,16,6
			C10.5,6,6,10.5,6,16c0,5.5,4.5,10,10,10c5.5,0,10-4.5,10-10c0-1.4-0.3-2.8-0.8-4"/>
	</g>
	<g>
		<path d="M17,16c0,0.6-0.4,1-1,1c-0.6,0-1-0.4-1-1c0-0.6,0.4-1,1-1C16.6,15,17,15.4,17,16z"/>
	</g>
</g>
</svg>
