<?xml version="1.0" encoding="utf-8"?>
<!-- Generator: Adobe Illustrator 25.0.1, SVG Export Plug-In . SVG Version: 6.00 Build 0)  -->
<svg version="1.1" id="Layer_1" xmlns="http://www.w3.org/2000/svg" xmlns:xlink="http://www.w3.org/1999/xlink" x="0px" y="0px"
	 width="32px" height="32px" viewBox="0 0 32 32" style="enable-background:new 0 0 32 32;" xml:space="preserve">
<style type="text/css">
	.st0{fill:none;stroke:#000000;stroke-width:0.72;stroke-miterlimit:10;}
	.st1{fill:none;stroke:#000000;stroke-width:0.72;stroke-linejoin:round;stroke-miterlimit:10;}
</style>
<g id="education_2_">
	<path d="M29.4,31h-0.7c0-3.7-1.8-7.2-4.7-9.4l-3.3,5.6c-0.1,0.2-0.3,0.2-0.5,0.1L16,24.9l-4.2,2.4c-0.2,0.1-0.4,0-0.5-0.1l-3.3-5.6
		c-2.9,2.3-4.7,5.7-4.7,9.4H2.6c0-5.6,3.9-10.6,9.5-12.4c-2.2-1.4-3.7-3.8-3.7-6.5c0-1.1,0.2-2.1,0.6-3L5.4,7v8H4.6V6.4c0,0,0,0,0,0
		c0-0.1,0.1-0.3,0.2-0.3l11-5.4c0.1,0,0.2,0,0.3,0l11,5.4c0.1,0.1,0.2,0.2,0.2,0.3c0,0.1-0.1,0.3-0.2,0.3l-4.3,2.5
		c0.4,1,0.6,2,0.6,3c0,2.7-1.4,5.1-3.6,6.5C25.4,20.4,29.4,25.4,29.4,31z M16,24.1c0.1,0,0.1,0,0.2,0l4,2.3l3.1-5.4
		c-1.3-0.9-2.8-1.6-4.5-2c-0.2,0-0.3-0.2-0.3-0.3c0-0.2,0.1-0.3,0.2-0.4c2.5-1.1,4-3.5,4-6.2c0-1-0.2-1.9-0.6-2.8
		c-1.3,0-8.4,0-12.4,0c-0.4,0.9-0.6,1.8-0.6,2.8c0,2.7,1.6,5.1,4.1,6.2c0.1,0.1,0.2,0.2,0.2,0.4s-0.1,0.3-0.3,0.3
		c-1.7,0.4-3.2,1.1-4.5,2l3.1,5.4l4-2.3C15.9,24.1,15.9,24.1,16,24.1z M15.9,8.6c3.8,0,5.5,0,6.2,0V7.3l-0.3-0.2
		c-1.4-0.8-3.1-1.7-5.8-1.7c-2.7,0-4.5,1-5.9,1.8L9.9,7.3v1.4C12.3,8.6,14.3,8.6,15.9,8.6z M16,4.6c2.9,0,4.7,1,6.1,1.8l0.5,0.3
		c0.1,0.1,0.2,0.2,0.2,0.3v1.3l3.4-2L16,1.4l-10.2,5l3.4,2V7c0-0.1,0.1-0.3,0.2-0.3l0.4-0.2C11.3,5.7,13.1,4.6,16,4.6z"/>
</g>
</svg>
