<?xml version="1.0" encoding="utf-8"?>
<!-- Generator: Adobe Illustrator 25.2.0, SVG Export Plug-In . SVG Version: 6.00 Build 0)  -->
<svg version="1.1" id="Layer_1" xmlns="http://www.w3.org/2000/svg" xmlns:xlink="http://www.w3.org/1999/xlink" x="0px" y="0px"
	 width="42px" height="42px" viewBox="0 0 42 42" style="enable-background:new 0 0 42 42;" xml:space="preserve">
<style type="text/css">
	.st0{fill:none;stroke:#000000;stroke-width:0.72;stroke-miterlimit:10;}
	.st1{fill:none;stroke:#000000;stroke-width:0.72;stroke-linejoin:round;stroke-miterlimit:10;}
</style>
<g id="slack_1_">
	<path d="M20.2,9.8h-4.4c-2.4,0-4.4-2-4.4-4.4s2-4.4,4.4-4.4s4.4,2,4.4,4.4V9.8z M15.8,1.9c-1.9,0-3.4,1.5-3.4,3.4s1.5,3.4,3.4,3.4
		h3.4V5.4C19.2,3.5,17.7,1.9,15.8,1.9z M15.8,20.2H5.4c-2.4,0-4.4-2-4.4-4.4s2-4.4,4.4-4.4h10.4c2.4,0,4.4,2,4.4,4.4
		S18.2,20.2,15.8,20.2z M5.4,12.4c-1.9,0-3.4,1.5-3.4,3.4s1.5,3.4,3.4,3.4h10.4c1.9,0,3.4-1.5,3.4-3.4s-1.5-3.4-3.4-3.4H5.4z
		 M36.6,20.2h-4.4v-4.4c0-2.4,2-4.4,4.4-4.4s4.4,2,4.4,4.4S39,20.2,36.6,20.2z M33.2,19.2h3.4c1.9,0,3.4-1.5,3.4-3.4
		s-1.5-3.4-3.4-3.4s-3.4,1.5-3.4,3.4V19.2z M26.2,20.2c-2.4,0-4.4-2-4.4-4.4V5.4c0-2.4,2-4.4,4.4-4.4s4.4,2,4.4,4.4v10.4
		C30.6,18.2,28.6,20.2,26.2,20.2z M26.2,1.9c-1.9,0-3.4,1.5-3.4,3.4v10.4c0,1.9,1.5,3.4,3.4,3.4c1.9,0,3.4-1.5,3.4-3.4V5.4
		C29.6,3.5,28.1,1.9,26.2,1.9z M26.2,41c-2.4,0-4.4-2-4.4-4.4v-4.4h4.4c2.4,0,4.4,2,4.4,4.4S28.6,41,26.2,41z M22.8,33.2v3.4
		c0,1.9,1.5,3.4,3.4,3.4c1.9,0,3.4-1.5,3.4-3.4s-1.5-3.4-3.4-3.4H22.8z M36.6,30.6H26.2c-2.4,0-4.4-2-4.4-4.4s2-4.4,4.4-4.4h10.4
		c2.4,0,4.4,2,4.4,4.4S39,30.6,36.6,30.6z M26.2,22.8c-1.9,0-3.4,1.5-3.4,3.4c0,1.9,1.5,3.4,3.4,3.4h10.4c1.9,0,3.4-1.5,3.4-3.4
		c0-1.9-1.5-3.4-3.4-3.4H26.2z M5.4,30.6c-2.4,0-4.4-2-4.4-4.4s2-4.4,4.4-4.4h4.4v4.4C9.8,28.6,7.8,30.6,5.4,30.6z M5.4,22.8
		c-1.9,0-3.4,1.5-3.4,3.4c0,1.9,1.5,3.4,3.4,3.4s3.4-1.5,3.4-3.4v-3.4H5.4z M15.8,41c-2.4,0-4.4-2-4.4-4.4V26.2c0-2.4,2-4.4,4.4-4.4
		s4.4,2,4.4,4.4v10.4C20.2,39,18.2,41,15.8,41z M15.8,22.8c-1.9,0-3.4,1.5-3.4,3.4v10.4c0,1.9,1.5,3.4,3.4,3.4s3.4-1.5,3.4-3.4V26.2
		C19.2,24.3,17.7,22.8,15.8,22.8z"/>
	<path d="M26.2,41.1c-2.5,0-4.5-2-4.5-4.5v-4.5h4.5c2.5,0,4.5,2,4.5,4.5S28.7,41.1,26.2,41.1z M22,32.4v4.2c0,2.3,1.9,4.2,4.2,4.2
		s4.2-1.9,4.2-4.2s-1.9-4.2-4.2-4.2H22z M15.8,41.1c-2.5,0-4.5-2-4.5-4.5V26.2c0-2.5,2-4.5,4.5-4.5s4.5,2,4.5,4.5v10.4
		C20.3,39.1,18.3,41.1,15.8,41.1z M15.8,22c-2.3,0-4.2,1.9-4.2,4.2v10.4c0,2.3,1.9,4.2,4.2,4.2S20,39,20,36.6V26.2
		C20,23.9,18.1,22,15.8,22z M26.2,40.2c-2,0-3.6-1.6-3.6-3.6V33h3.6c2,0,3.6,1.6,3.6,3.6S28.2,40.2,26.2,40.2z M22.9,33.3v3.3
		c0,1.8,1.5,3.3,3.3,3.3s3.3-1.5,3.3-3.3s-1.5-3.3-3.3-3.3H22.9z M15.8,40.2c-2,0-3.6-1.6-3.6-3.6V26.2c0-2,1.6-3.6,3.6-3.6
		s3.6,1.6,3.6,3.6v10.4C19.4,38.6,17.8,40.2,15.8,40.2z M15.8,22.9c-1.8,0-3.3,1.5-3.3,3.3v10.4c0,1.8,1.5,3.3,3.3,3.3
		s3.3-1.5,3.3-3.3V26.2C19.1,24.4,17.6,22.9,15.8,22.9z M36.6,30.7H26.2c-2.5,0-4.5-2-4.5-4.5s2-4.5,4.5-4.5h10.4
		c2.5,0,4.5,2,4.5,4.5S39.1,30.7,36.6,30.7z M26.2,22c-2.3,0-4.2,1.9-4.2,4.2s1.9,4.2,4.2,4.2h10.4c2.3,0,4.2-1.9,4.2-4.2
		S39,22,36.6,22H26.2z M5.4,30.7c-2.5,0-4.5-2-4.5-4.5s2-4.5,4.5-4.5h4.5v4.5C9.9,28.7,7.9,30.7,5.4,30.7z M5.4,22
		c-2.3,0-4.2,1.9-4.2,4.2s1.9,4.2,4.2,4.2s4.2-1.9,4.2-4.2V22H5.4z M36.6,29.8H26.2c-2,0-3.6-1.6-3.6-3.6s1.6-3.6,3.6-3.6h10.4
		c2,0,3.6,1.6,3.6,3.6S38.6,29.8,36.6,29.8z M26.2,22.9c-1.8,0-3.3,1.5-3.3,3.3s1.5,3.3,3.3,3.3h10.4c1.8,0,3.3-1.5,3.3-3.3
		s-1.5-3.3-3.3-3.3H26.2z M5.4,29.8c-2,0-3.6-1.6-3.6-3.6s1.6-3.6,3.6-3.6H9v3.6C9,28.2,7.4,29.8,5.4,29.8z M5.4,22.9
		c-1.8,0-3.3,1.5-3.3,3.3s1.5,3.3,3.3,3.3s3.3-1.5,3.3-3.3v-3.3H5.4z M36.6,20.3h-4.5v-4.5c0-2.5,2-4.5,4.5-4.5s4.5,2,4.5,4.5
		S39.1,20.3,36.6,20.3z M32.4,20h4.2c2.3,0,4.2-1.9,4.2-4.2s-1.9-4.2-4.2-4.2s-4.2,1.9-4.2,4.2V20z M26.2,20.3c-2.5,0-4.5-2-4.5-4.5
		V5.4c0-2.5,2-4.5,4.5-4.5s4.5,2,4.5,4.5v10.4C30.7,18.3,28.7,20.3,26.2,20.3z M26.2,1.1C23.9,1.1,22,3,22,5.4v10.4
		c0,2.3,1.9,4.2,4.2,4.2s4.2-1.9,4.2-4.2V5.4C30.4,3,28.5,1.1,26.2,1.1z M15.8,20.3H5.4c-2.5,0-4.5-2-4.5-4.5s2-4.5,4.5-4.5h10.4
		c2.5,0,4.5,2,4.5,4.5S18.3,20.3,15.8,20.3z M5.4,11.6c-2.3,0-4.2,1.9-4.2,4.2S3,20,5.4,20h10.4c2.3,0,4.2-1.9,4.2-4.2
		s-1.9-4.2-4.2-4.2H5.4z M36.6,19.4H33v-3.6c0-2,1.6-3.6,3.6-3.6s3.6,1.6,3.6,3.6S38.6,19.4,36.6,19.4z M33.3,19.1h3.3
		c1.8,0,3.3-1.5,3.3-3.3s-1.5-3.3-3.3-3.3s-3.3,1.5-3.3,3.3V19.1z M26.2,19.4c-2,0-3.6-1.6-3.6-3.6V5.4c0-2,1.6-3.6,3.6-3.6
		s3.6,1.6,3.6,3.6v10.4C29.8,17.8,28.2,19.4,26.2,19.4z M26.2,2.1c-1.8,0-3.3,1.5-3.3,3.3v10.4c0,1.8,1.5,3.3,3.3,3.3
		s3.3-1.5,3.3-3.3V5.4C29.5,3.6,28,2.1,26.2,2.1z M15.8,19.4H5.4c-2,0-3.6-1.6-3.6-3.6s1.6-3.6,3.6-3.6h10.4c2,0,3.6,1.6,3.6,3.6
		S17.8,19.4,15.8,19.4z M5.4,12.5c-1.8,0-3.3,1.5-3.3,3.3s1.5,3.3,3.3,3.3h10.4c1.8,0,3.3-1.5,3.3-3.3s-1.5-3.3-3.3-3.3H5.4z
		 M20.3,9.9h-4.5c-2.5,0-4.5-2-4.5-4.5s2-4.5,4.5-4.5s4.5,2,4.5,4.5V9.9z M15.8,1.1c-2.3,0-4.2,1.9-4.2,4.2s1.9,4.2,4.2,4.2H20V5.4
		C20,3,18.1,1.1,15.8,1.1z M19.4,9h-3.6c-2,0-3.6-1.6-3.6-3.6s1.6-3.6,3.6-3.6s3.6,1.6,3.6,3.6V9z M15.8,2.1c-1.8,0-3.3,1.5-3.3,3.3
		s1.5,3.3,3.3,3.3h3.3V5.4C19.1,3.6,17.6,2.1,15.8,2.1z"/>
</g>
</svg>
