<svg id="Layer_1" data-name="Layer 1" xmlns="http://www.w3.org/2000/svg" width="48" height="48" viewBox="0 0 48 48">
  <defs>
    <style>
      .cls-1, .cls-2 {
        fill: none;
        stroke: #000;
        stroke-width: 1.2px;
      }

      .cls-1 {
        stroke-miterlimit: 10;
      }

      .cls-2 {
        stroke-linejoin: round;
      }
    </style>
  </defs>
  <g id="partner--relationship">
    <path id="_Compound_Path_" data-name="&lt;Compound Path&gt;" class="cls-1" d="M28,21.33,30.67,24,28,26.67m-8-5.34L17.33,24,20,26.67M17.33,24H30.67"/>
    <path class="cls-2" d="M9.33,5.33a3.34,3.34,0,1,0,3.34,3.34A3.34,3.34,0,0,0,9.33,5.33ZM6.67,42.67v-12A3.77,3.77,0,0,1,4,27V20a5.34,5.34,0,0,1,10.67,0v6.93A3.8,3.8,0,0,1,12,30.67v12M38.67,5.33A3.34,3.34,0,1,0,42,8.67,3.35,3.35,0,0,0,38.67,5.33ZM36,42.67v-12A3.77,3.77,0,0,1,33.33,27V20A5.34,5.34,0,0,1,44,20v6.93a3.8,3.8,0,0,1-2.67,3.74v12"/>
  </g>
</svg>
