<svg id="Layer_2" data-name="Layer 2" xmlns="http://www.w3.org/2000/svg" width="48" height="48" viewBox="0 0 42 42">
  <g>
    <path d="M3.1,21.65a.61.61,0,0,1-.57-.79l1.34-4L1,14.53a.6.6,0,0,1,.38-1.07H5l1-3.08a.62.62,0,0,1,1.13,0l1,3.08h3.63a.6.6,0,0,1,.57.4.61.61,0,0,1-.19.67L9.32,16.84l1.34,4a.6.6,0,0,1-.95.65L6.6,19,3.48,21.51A.59.59,0,0,1,3.1,21.65Zm3.5-4a.64.64,0,0,1,.37.13l1.91,1.53-.83-2.49a.6.6,0,0,1,.2-.66l1.87-1.5H7.77a.59.59,0,0,1-.57-.41l-.6-1.79L6,14.25a.59.59,0,0,1-.56.41H3.07l1.87,1.5a.6.6,0,0,1,.2.66l-.83,2.49,1.91-1.53A.65.65,0,0,1,6.6,17.65Z"/>
    <g id="education">
      <path d="M32.08,31.52h-1.2a7,7,0,0,0-2.41-5.19l-1.76,3.05a.61.61,0,0,1-.82.22l-2.36-1.36L21.17,29.6a.61.61,0,0,1-.82-.22l-1.76-3.05a7,7,0,0,0-2.4,5.19H15a8.43,8.43,0,0,1,5.35-7.67A5,5,0,0,1,18.54,20a4.91,4.91,0,0,1,.3-1.7l-1.43-.82v4.24h-1.2v-5.3a.61.61,0,0,1,.34-.52l6.72-3.27a.59.59,0,0,1,.52,0l6.73,3.27a.6.6,0,0,1,0,1.06l-2.33,1.35a4.81,4.81,0,0,1,.3,1.69,5,5,0,0,1-1.8,3.83A8.44,8.44,0,0,1,32.08,31.52Zm-8.55-4.58a.64.64,0,0,1,.3.08L26,28.26l1.54-2.66a7.55,7.55,0,0,0-2.33-1,.59.59,0,0,1-.46-.52.62.62,0,0,1,.35-.61A3.79,3.79,0,0,0,27.32,20a3.63,3.63,0,0,0-.25-1.35H20A3.85,3.85,0,0,0,19.74,20,3.79,3.79,0,0,0,22,23.48a.61.61,0,0,1,.35.61.59.59,0,0,1-.46.52,7.55,7.55,0,0,0-2.33,1l1.53,2.66L23.23,27A.64.64,0,0,1,23.53,26.94Zm-1.16-9.47c2.42,0,3.75,0,4.49,0v-.25a6.12,6.12,0,0,0-3.31-1,6.3,6.3,0,0,0-3.35,1v.23ZM23.55,15a7.4,7.4,0,0,1,3.93,1.18l.27.15a.61.61,0,0,1,.31.53V17L29,16.5l-5.45-2.64L18.09,16.5,19,17v-.14a.61.61,0,0,1,.31-.53l.25-.14A7.6,7.6,0,0,1,23.55,15Z"/>
    </g>
    <path d="M23.62,40A17.64,17.64,0,0,1,6,22.36H7.2A16.43,16.43,0,1,0,11.77,11l-.87-.84A17.62,17.62,0,1,1,23.62,40Z"/>
  </g>
</svg>
