<svg id="Layer_1" data-name="Layer 1" xmlns="http://www.w3.org/2000/svg" width="48" height="48" viewBox="0 0 48 48">
  <defs>
    <style>
      .cls-1 {
        fill: none;
        stroke: #000;
        stroke-linejoin: round;
        stroke-width: 1.2px;
      }
    </style>
  </defs>
  <path id="education" class="cls-1" d="M15.43,14.65a9.56,9.56,0,0,0,4.69,13C12.71,29.41,6.67,36.05,6.67,44m25.9-29.35a9.57,9.57,0,0,1-4.68,13c7.4,1.76,13.44,8.4,13.44,16.35M13.6,30.71l4.6,8L24,35.32l5.8,3.35,4.6-8M32.57,14.65V12.07c-2-1.1-4.44-2.74-8.53-2.74S17.41,11,15.43,12.07v2.58m17.14,0,6.1-3.52L24,4,9.33,11.13l6.1,3.52Zm-23.24,8V11.13"/>
</svg>
