<?xml version="1.0" encoding="utf-8"?>
<!-- Generator: Adobe Illustrator 25.0.1, SVG Export Plug-In . SVG Version: 6.00 Build 0)  -->
<svg version="1.1" id="Layer_1" xmlns="http://www.w3.org/2000/svg" xmlns:xlink="http://www.w3.org/1999/xlink" x="0px" y="0px"
	 width="32px" height="32px" viewBox="0 0 32 32" style="enable-background:new 0 0 32 32;" xml:space="preserve">
<style type="text/css">
	.st0{fill:none;stroke:#000000;stroke-width:0.72;stroke-miterlimit:10;}
</style>
<g id="personality--insights_2_">
	<path d="M22.4,31h-0.7v-3c0-2.6-1.7-4.8-4.2-5.5c-0.1,0-0.2-0.2-0.3-0.3c0-0.1,0.1-0.3,0.2-0.4c1-0.5,1.6-1.5,1.6-2.6
		c0-1.6-1.3-2.9-2.9-2.9s-2.9,1.3-2.9,2.9c0,1.1,0.6,2.1,1.6,2.6c0.1,0.1,0.2,0.2,0.2,0.4c0,0.1-0.1,0.3-0.3,0.3
		c-2.5,0.7-4.2,2.9-4.2,5.5v3H9.6v-3c0-2.6,1.6-5,4-5.9c-0.8-0.7-1.3-1.7-1.3-2.8c0-1.9,1.4-3.5,3.3-3.6v-3.3H4
		c-0.2,0-0.4-0.2-0.4-0.4V7.3C2,7.2,0.6,5.7,0.6,4c0-1.9,1.5-3.4,3.4-3.4S7.4,2.1,7.4,4c0,1.7-1.3,3.2-3,3.3v4.3h11.3V7.4H13
		c-0.2,0-0.4-0.2-0.4-0.4V1c0-0.2,0.2-0.4,0.4-0.4h6c0.2,0,0.4,0.2,0.4,0.4v6c0,0.2-0.2,0.4-0.4,0.4h-2.6v4.3h10.8V7.4h-3.1
		c-0.1,0-0.2-0.1-0.3-0.2c-0.1-0.1-0.1-0.2,0-0.4l3.5-6c0.1-0.2,0.5-0.2,0.6,0l3.5,6c0.1,0.1,0.1,0.2,0,0.4
		c-0.1,0.1-0.2,0.2-0.3,0.2h-3.1V12c0,0.2-0.2,0.4-0.4,0.4H16.4v3.3c1.9,0.2,3.3,1.7,3.3,3.6c0,1.1-0.5,2.1-1.3,2.8
		c2.4,1,4,3.3,4,5.9V31z M24.7,6.6h5.7l-2.8-4.9L24.7,6.6z M13.4,6.6h5.3V1.4h-5.3V6.6z M4,1.4C2.5,1.4,1.4,2.5,1.4,4S2.5,6.6,4,6.6
		S6.6,5.5,6.6,4S5.5,1.4,4,1.4z"/>
</g>
</svg>
