<?xml version="1.0" encoding="utf-8"?>
<!-- Generator: Adobe Illustrator 25.0.1, SVG Export Plug-In . SVG Version: 6.00 Build 0)  -->
<svg version="1.1" id="Layer_1" xmlns="http://www.w3.org/2000/svg" xmlns:xlink="http://www.w3.org/1999/xlink" x="0px" y="0px"
	 width="32px" height="32px" viewBox="0 0 32 32" style="enable-background:new 0 0 32 32;" xml:space="preserve">
<style type="text/css">
	.st0{fill:none;stroke:#000000;stroke-width:0.72;stroke-miterlimit:10;}
	.st1{fill:none;stroke:#000000;stroke-width:0.72;stroke-linejoin:round;stroke-miterlimit:10;}
</style>
<g id="innovate_3_">
	<g id="patterns-ideas-creativity-04_3_">
		<path d="M19,31.4h-6v-0.7h6V31.4z M20,29.4h-8v-0.7h8V29.4z M20,27.4h-8v-0.7h8V27.4z M20,25.4h-8c-0.2,0-0.4-0.2-0.4-0.4v-1.5
			c0-1.6,0-4.1-2-6.2c-1.9-2-3-4.5-3-7.1c0-5.4,4.1-9.6,9.4-9.6s9.4,4.2,9.4,9.6c0,2.6-1.1,5.1-3,7.1c-2,2.1-2,4.6-2,6.2V25
			C20.4,25.2,20.2,25.4,20,25.4z M12.4,24.6h7.3v-1.1c0-1.6,0-4.4,2.2-6.7c1.8-1.9,2.8-4.2,2.8-6.6c0-5-3.8-8.9-8.6-8.9
			s-8.6,3.9-8.6,8.9c0,2.4,1,4.7,2.8,6.6c2.2,2.3,2.2,5.1,2.2,6.7V24.6z"/>
	</g>
	<g id="gear_2_">
		<path d="M17.2,16.9h-2.4c-0.2,0-0.4-0.2-0.4-0.4v-1.3l-0.7-0.3l-0.9,0.9c-0.1,0.1-0.4,0.1-0.5,0l-1.7-1.7
			c-0.1-0.1-0.1-0.2-0.1-0.3c0-0.1,0-0.2,0.1-0.3l0.9-0.9L11.3,12H10c-0.2,0-0.4-0.2-0.4-0.4V9.3C9.6,9.1,9.8,9,10,9h1.3l0.3-0.7
			l-0.9-0.9c-0.1-0.1-0.1-0.4,0-0.5l1.7-1.7c0.1-0.1,0.4-0.1,0.5,0l0.9,0.9l0.7-0.3V4.5c0-0.2,0.2-0.4,0.4-0.4h2.4
			c0.2,0,0.4,0.2,0.4,0.4v1.3l0.7,0.3l0.9-0.9c0.1-0.1,0.4-0.1,0.5,0l1.7,1.7c0.1,0.1,0.1,0.4,0,0.5l-0.9,0.9L20.7,9H22
			c0.2,0,0.4,0.2,0.4,0.4v2.4c0,0.2-0.2,0.4-0.4,0.4h-1.3l-0.3,0.7l0.9,0.9c0.1,0.1,0.1,0.4,0,0.5l-1.7,1.7
			c-0.1,0.1-0.2,0.1-0.3,0.1l0,0c-0.1,0-0.2,0-0.3-0.1l-0.9-0.9l-0.7,0.3v1.3C17.5,16.7,17.4,16.9,17.2,16.9z M15.2,16.1h1.6v-1.2
			c0-0.1,0.1-0.3,0.2-0.3l1.1-0.5c0.1-0.1,0.3,0,0.4,0.1l0.8,0.8l1.2-1.2l-0.8-0.8c-0.1-0.1-0.1-0.3-0.1-0.4l0.5-1.1
			c0.1-0.1,0.2-0.2,0.3-0.2h1.2V9.7h-1.2c-0.1,0-0.3-0.1-0.3-0.2l-0.5-1.1c-0.1-0.1,0-0.3,0.1-0.4l0.8-0.8l-1.2-1.2l-0.8,0.8
			c-0.1,0.1-0.3,0.1-0.4,0.1L17,6.4c-0.1-0.1-0.2-0.2-0.2-0.3V4.9h-1.6v1.2c0,0.1-0.1,0.3-0.2,0.3l-1.1,0.5c-0.1,0.1-0.3,0-0.4-0.1
			l-0.8-0.8l-1.2,1.2l0.8,0.8c0.1,0.1,0.1,0.3,0.1,0.4l-0.5,1.1c-0.1,0.1-0.2,0.2-0.3,0.2h-1.2v1.6h1.2c0.1,0,0.3,0.1,0.3,0.2
			l0.5,1.1c0.1,0.1,0,0.3-0.1,0.4l-0.8,0.8l1.2,1.2l0.8-0.8c0.1-0.1,0.3-0.1,0.4-0.1l1.1,0.5c0.1,0.1,0.2,0.2,0.2,0.3V16.1z
			 M16,13.4c-1.6,0-2.9-1.3-2.9-2.9s1.3-2.9,2.9-2.9s2.9,1.3,2.9,2.9S17.6,13.4,16,13.4z M16,8.4c-1.2,0-2.1,1-2.1,2.1
			s1,2.1,2.1,2.1s2.1-1,2.1-2.1S17.2,8.4,16,8.4z"/>
	</g>
</g>
</svg>
