<?xml version="1.0" encoding="utf-8"?>
<!-- Generator: Adobe Illustrator 26.0.1, SVG Export Plug-In . SVG Version: 6.00 Build 0)  -->
<svg version="1.1" id="Layer_1" xmlns="http://www.w3.org/2000/svg" xmlns:xlink="http://www.w3.org/1999/xlink" x="0px" y="0px"
	 width="42px" height="42px" viewBox="0 0 42 42" style="enable-background:new 0 0 42 42;" xml:space="preserve">
<g id="process_00000103978175936769824990000010822226547857046444_">
	<g>
		<g>
			<path d="M22.8,29.9h-3.5c-0.3,0-0.6-0.3-0.6-0.6v-1.9L17.8,27l-1.4,1.4c-0.2,0.2-0.6,0.2-0.8,0l-2.5-2.5c-0.2-0.2-0.2-0.6,0-0.8
				l1.3-1.4L14,22.7h-1.9c-0.3,0-0.6-0.3-0.6-0.6v-3.5c0-0.3,0.3-0.6,0.6-0.6H14l0.4-0.9l-1.4-1.4c-0.2-0.2-0.2-0.6,0-0.8l2.5-2.5
				c0.2-0.2,0.6-0.2,0.8,0l1.3,1.4l0.9-0.4v-1.9c0-0.3,0.3-0.6,0.6-0.6h3.5c0.3,0,0.6,0.3,0.6,0.6v1.9l0.9,0.4l1.4-1.4
				c0.2-0.2,0.6-0.2,0.8,0l2.5,2.5c0.2,0.2,0.2,0.6,0,0.8l-1.3,1.3l0.4,0.9H30c0.3,0,0.6,0.3,0.6,0.6v3.5c0,0.3-0.3,0.6-0.6,0.6
				h-1.9l-0.4,0.9l1.4,1.4c0.2,0.2,0.2,0.6,0,0.8l-2.5,2.5c-0.1,0.1-0.3,0.2-0.4,0.2l0,0c-0.2,0-0.3-0.1-0.4-0.2L24.4,27l-0.9,0.4
				v1.9C23.4,29.6,23.2,29.9,22.8,29.9z M19.9,28.7h2.3V27c0-0.2,0.1-0.5,0.4-0.6l1.7-0.7c0.2-0.1,0.5,0,0.7,0.1l1.2,1.2l1.6-1.6
				l-1.2-1.2c-0.2-0.2-0.2-0.4-0.1-0.7l0.7-1.7c0.1-0.2,0.3-0.4,0.6-0.4h1.7v-2.3h-1.7c-0.2,0-0.5-0.1-0.6-0.4l-0.7-1.7
				c-0.1-0.2,0-0.5,0.1-0.7l1.2-1.2l-1.6-1.6l-1.2,1.2c-0.2,0.2-0.4,0.2-0.7,0.1l-1.7-0.7c-0.2-0.1-0.4-0.3-0.4-0.6V12h-2.3v1.7
				c0,0.2-0.1,0.5-0.4,0.6L17.8,15c-0.2,0.1-0.5,0-0.7-0.1L16,13.6l-1.6,1.6l1.2,1.2c0.2,0.2,0.2,0.4,0.1,0.7L15,18.8
				c-0.1,0.2-0.3,0.4-0.6,0.4h-1.7v2.3h1.7c0.2,0,0.5,0.1,0.6,0.4l0.7,1.7c0.1,0.2,0,0.5-0.1,0.7l-1.2,1.2l1.6,1.6l1.2-1.2
				c0.2-0.2,0.4-0.2,0.7-0.1l1.7,0.7c0.2,0.1,0.4,0.3,0.4,0.6V28.7z M21.1,24.8c-2.4,0-4.4-2-4.4-4.4c0-2.4,2-4.4,4.4-4.4
				c2.4,0,4.4,2,4.4,4.4C25.5,22.8,23.5,24.8,21.1,24.8z M21.1,17.1c-1.8,0-3.2,1.4-3.2,3.2s1.4,3.2,3.2,3.2s3.2-1.5,3.2-3.2
				S22.8,17.1,21.1,17.1z"/>
		</g>
	</g>
	<g>
		<path d="M21.1,40.1c-5.7,0-11-2.4-14.7-6.6v4.7H5.1v-7h7v1.2H7c3.5,4.1,8.6,6.5,14.1,6.5c10.2,0,18.6-8.3,18.6-18.6h1.2
			C40.8,31.3,32,40.1,21.1,40.1z M2.5,20.4H1.3c0-10.9,8.9-19.8,19.8-19.8c5.7,0,11,2.4,14.7,6.6V2.5H37v7h-7V8.3h5.1
			c-3.5-4.1-8.6-6.5-14.1-6.5C10.8,1.8,2.5,10.1,2.5,20.4z"/>
	</g>
</g>
</svg>
