<?xml version="1.0" encoding="utf-8"?>
<!-- Generator: Adobe Illustrator 25.2.0, SVG Export Plug-In . SVG Version: 6.00 Build 0)  -->
<svg version="1.1" id="Layer_1" xmlns="http://www.w3.org/2000/svg" xmlns:xlink="http://www.w3.org/1999/xlink" x="0px" y="0px"
	 width="32px" height="32px" viewBox="0 0 32 32" style="enable-background:new 0 0 32 32;" xml:space="preserve">
<style type="text/css">
	.st0{fill:none;stroke:#000000;stroke-width:0.72;stroke-miterlimit:10;}
	.st1{fill:none;stroke:#000000;stroke-width:0.72;stroke-linejoin:round;stroke-miterlimit:10;}
</style>
<g>
	<g id="user--experience-design_2_">
		<path d="M16,30.4c-2.6,0-5.1-0.7-7.2-2.1l0.4-0.6c2,1.3,4.3,1.9,6.8,1.9c2.4,0,4.8-0.7,6.8-1.9l0.4,0.6
			C21.1,29.6,18.5,30.4,16,30.4z M28,26.4c-1.9,0-3.4-1.5-3.4-3.4s1.5-3.4,3.4-3.4s3.4,1.5,3.4,3.4S29.9,26.4,28,26.4z M28,20.4
			c-1.5,0-2.6,1.2-2.6,2.6s1.2,2.6,2.6,2.6s2.6-1.2,2.6-2.6S29.5,20.4,28,20.4z M8,26.4H1c-0.1,0-0.2-0.1-0.3-0.2s-0.1-0.2,0-0.4
			l3.5-6c0.1-0.2,0.5-0.2,0.6,0l3.5,6c0.1,0.1,0.1,0.2,0,0.4C8.2,26.3,8.1,26.4,8,26.4z M1.6,25.6h5.7l-2.9-4.9L1.6,25.6z M29.3,18
			L28.6,18c0-0.3,0-0.6,0-1c0-4.7-2.6-9-6.8-11.2l0.3-0.6c4.4,2.3,7.2,6.8,7.2,11.8C29.4,17.3,29.3,17.7,29.3,18z M2.7,18
			c0-0.3,0-0.7,0-1c0-5,2.8-9.5,7.2-11.9l0.3,0.6C6,8,3.4,12.3,3.4,17c0,0.3,0,0.7,0,1L2.7,18z M19,7.4h-6c-0.2,0-0.4-0.2-0.4-0.4V1
			c0-0.2,0.2-0.4,0.4-0.4h6c0.2,0,0.4,0.2,0.4,0.4v6C19.4,7.2,19.2,7.4,19,7.4z M13.4,6.6h5.3V1.4h-5.3C13.4,1.4,13.4,6.6,13.4,6.6z
			"/>
	</g>
	<g id="design--and--development--01_1_">
		<g>
			<path d="M22,22.3H10c-0.2,0-0.4-0.2-0.4-0.4V11.8c0-0.2,0.2-0.4,0.4-0.4h12c0.2,0,0.4,0.2,0.4,0.4V22
				C22.4,22.2,22.2,22.3,22,22.3z M10.3,21.6h11.3v-7.1H10.3V21.6z M10.3,13.8h11.3v-1.7H10.3V13.8z"/>
		</g>
		<g>
			<path d="M20.9,13c0,0.2-0.1,0.3-0.3,0.3c-0.2,0-0.3-0.1-0.3-0.3s0.1-0.3,0.3-0.3C20.7,12.7,20.9,12.9,20.9,13z M19.3,12.7
				c-0.2,0-0.3,0.1-0.3,0.3s0.1,0.3,0.3,0.3s0.3-0.1,0.3-0.3S19.5,12.7,19.3,12.7z M18,12.7c-0.2,0-0.3,0.1-0.3,0.3s0.1,0.3,0.3,0.3
				s0.3-0.1,0.3-0.3S18.2,12.7,18,12.7z"/>
		</g>
		<g>
			<path d="M18,19.3h-6.8v-0.7H18V19.3z M18,17.9h-6.8v-0.7H18V17.9z M18,16.4h-6.8v-0.7H18V16.4z"/>
		</g>
	</g>
</g>
</svg>
